<svg id="Lag_1" data-name="Lag 1" xmlns="http://www.w3.org/2000/svg" viewBox="0 0 1013.25 540.8"><defs><style>.cls-1{fill:#0d0e0e;}.cls-2{fill:#ceb368;}</style></defs><path class="cls-1" d="M265.61,509.91c0-18.32.16-36.65-.06-55-.11-9-1.76-10.35-10.68-11.81-1.39-.22-4.43,1.36-4.06-1.95.32-2.72,2.92-1.94,4.69-1.79,8.89.72,17.69,2.82,26.7,1.89,5.92-.61,11.83-1.33,17.76-1.91,1.59-.16,3.73-.68,3.86,1.9.14,2.86-2.34,1.69-3.69,1.91-10.39,1.66-11.57,2.3-12,12.75-.58,14.89-.26,29.81-.47,44.72,0,2.82.94,3.59,3.66,3.58q28.19-.14,56.37,0c2.27,0,3.52-.39,3.49-3.12-.18-15.34.17-30.69-.41-46-.35-9.33-2.2-10.47-11.53-11.91-1.51-.23-4.5,1.28-4.41-1.8.1-3.42,3.2-2.1,4.95-1.9,8.67,1,17.3,2.58,26.08,1.82,6.13-.53,12.24-1.39,18.38-1.89,1.39-.12,3.62-1.17,4,1.65.4,3.26-2.23,1.86-3.49,2.06-10.53,1.67-11.62,2.68-11.64,13.55q-.1,53.68,0,107.39c0,9.13,2.07,11.05,11.24,11.75,1.63.12,4.42-1,4,2.3-.3,2.58-2.65,1.45-4.06,1.46q-22.72.13-45.47,0c-1.47,0-4.28,1.47-4.25-1.9,0-2.79,2.41-1.73,3.87-1.84,10.33-.77,12.26-2.34,12.47-12.73.33-16.41.09-32.82.25-49.22,0-3.09-1-4.05-4-4q-27.54.15-55.09,0c-3.33,0-4.45,1.07-4.4,4.41.26,16.83.09,33.66.55,50.48.25,8.93,2.38,10.49,11.23,11.13,1.74.12,5-1.39,4.57,2.35-.35,3-3.15,1.34-4.69,1.35q-22.43.22-44.84,0c-1.46,0-4.28,1.5-4.23-1.88,0-2.79,2.42-1.73,3.89-1.85,9.4-.78,11.3-2.38,11.4-11.56C265.74,546.13,265.6,528,265.61,509.91Z" transform="translate(-41.91 -103.49)"/><path class="cls-1" d="M827.28,507.67c7.61-7.42,18.36-9.61,26.45-16.21,1.8-1.46,3.54-.71,4.95,1.82,2.43,4.38,2.84,9.22,4,15.12,7.66-9.51,15.72-16.74,27.19-18.13,10.5-1.27,17.74,4.86,23,19.5,4.86-8,11.64-12.87,19.26-17a20.83,20.83,0,0,1,29.13,9.37A33.22,33.22,0,0,1,964.12,517c-.2,14.49-.16,29,0,43.48.09,7-.66,14.8,9.79,15.4,1.41.09,1.47,1.3,1.4,2.4-.09,1.6-1.39,1.32-2.33,1.32q-17.94,0-35.88,0c-1,0-2.18.22-2.32-1.37-.18-2.08,1.08-2.37,2.75-2.55,4-.44,7.18-2.21,7.47-6.52,1.22-17.61,2.58-35.3-1-52.77-1.67-8.2-6.56-10.9-15-10.12a27.5,27.5,0,0,0-13,4.88,6.9,6.9,0,0,0-3.34,6.32c.11,15.56,0,31.12.15,46.68,0,6,1.44,11.17,8.89,11.6,1.57.09,2.33.83,2.22,2.39-.14,2-1.75,1.45-2.85,1.45q-17.29.07-34.6,0c-1.28,0-3.19.69-3.09-1.88.06-1.8,1.25-1.89,2.59-2,5.42-.49,7.83-3.74,8.05-8.92.67-15.74,1.62-31.53-.59-47.19-1.63-11.49-7.5-15.13-18.86-12.93-9.29,1.8-12.06,5.09-12,14.39,0,14.49.12,29,.07,43.48,0,6,1.45,10.64,8.44,11.16,1.71.13,2.22.92,2.13,2.41-.12,2-1.7,1.49-2.84,1.5q-17,0-34,0c-1.28,0-3.18.74-3.2-1.8,0-1.75,1-2,2.44-2.11,6.24-.61,7.94-4.69,7.93-10.25,0-15.78.17-31.55,0-47.32-.12-11.87-2.14-13.22-13.29-9.77C829.28,508.66,828.36,509.27,827.28,507.67Z" transform="translate(-41.91 -103.49)"/><path class="cls-1" d="M259.87,287.33c3.65,3.68,4.5,8.12,6.34,11.89,4.09,8.38,8.24,16.5,14.58,23.62,7,7.85,17.38,10.84,26.77,6.53,5.4-2.48,7.1-7.15,7.88-12.23,2.47-16.1-3.8-28.86-15.79-39.21-8.57-7.39-18.39-13.19-26.49-21.2-10.87-10.76-15-23.37-10.93-38.25A30.62,30.62,0,0,1,274,201.71c11.84-8.88,25.27-9.69,39.24-8a63.73,63.73,0,0,1,6.29,1.13c8.74,2,10.6,4.35,10.61,13.37s0,18.13,0,27.2l-1.83.41c-2.62-6-4.86-12.23-7.95-18-3.91-7.34-7-15.63-16.44-18.16-7.44-2-14.72-1.91-20.27,3.85-5.85,6.08-5.44,14-3.87,21.64,1.45,7,5.7,12.79,10.91,17.36,8.33,7.3,17.12,14.11,26,20.76,17.27,13,22.87,30.15,15.48,50.31-2.5,6.81-7.17,12.19-13.36,16.37-13.77,9.27-28.58,9.2-43.77,5.19-4.12-1.09-7.91-3.52-11.76-5.51-1.71-.88-3.34-2.22-3.35-4.37C259.84,312.89,259.87,300.51,259.87,287.33Z" transform="translate(-41.91 -103.49)"/><path class="cls-1" d="M656.28,480.1c1-15.65,2-30.52,3.15-47.21,3.1,6.49,7.92,5.72,12.44,6.38,15.49,2.23,31,2.17,46.63,2,13-.11,25.87-2.8,38.92-2.42,3.84.11,6.08-2.58,9.59-6.3-.7,16.47-1.34,31.55-2,47.24-3.09-1.83-2.93-4.65-3.54-7.09-3.82-15.39-14.26-27.6-28-27.45-7.66.09-10.28,1.89-10.32,9.63q-.24,55.62,0,111.26c0,7,3.14,9.06,11.55,9.66,1.74.12,5-1.48,4.73,2.2-.2,2.91-3,1.49-4.58,1.51q-23.05.18-46.13,0c-1.49,0-4.28,1.56-4.52-1.56s2.56-2.05,4.21-2.17c9.69-.69,11.9-2.21,12.17-11.75.5-18.1.33-36.22.37-54.33,0-16.63.21-33.26-.11-49.88-.1-4.94,1.73-11.77-4.9-13.77-7.08-2.14-14.08-.5-20.13,4.5-8.14,6.72-12.93,15.39-16,25.25A5.43,5.43,0,0,1,656.28,480.1Z" transform="translate(-41.91 -103.49)"/><path class="cls-1" d="M613.15,264.83c4-7,9.23-10.43,14.41-14.09,7.85-5.57,16.4-6.87,24.43-2.85,8.74,4.38,13.16,12.86,13.32,22.84.24,14.49.09,29,.15,43.48,0,2.55.16,5.11.34,7.66.38,5.17,2.28,9.09,8.21,9.51,1.36.09,2.54.31,2.66,2,.13,2-1.31,1.85-2.54,1.85q-17.94,0-35.88,0c-1.06,0-2.19-.06-2.2-1.57,0-1.17.43-2.19,1.72-2.21,7.68-.1,9-5.51,9.07-11.34.27-14.9,1.37-29.85-.76-44.68-1.58-11-7.19-14.87-18.22-13.32a36.84,36.84,0,0,0-6.18,1.49c-6.27,2-9.51,5.45-9.08,13,.77,13.82.16,27.7.25,41.56,0,6.4.4,12.78,9.17,13.28a1.88,1.88,0,0,1,1.86,2.13c0,2-1.56,1.68-2.73,1.68q-17.61,0-35.23,0c-1.28,0-2.6.09-2.54-1.87.06-1.79,1.21-1.91,2.57-2,5.87-.53,7.69-4.16,7.91-9.6.69-16.83.74-33.65,0-50.47-.41-9.06-3.05-10.54-11.94-7.77-1.15.36-2.49,2.14-4.28-.19,2.79-2.13,5.16-4.62,8.44-6.32,5.34-2.76,11.09-4.7,15.84-8.75,3.68-3.14,6.79-2.37,8.36,2.95A92.74,92.74,0,0,1,613.15,264.83Z" transform="translate(-41.91 -103.49)"/><path class="cls-1" d="M486.82,290.29c.39-17.63,7.27-31,23.68-39.54,11.36-5.91,22.84-7.26,34-2.34,14.13,6.25,22,18.27,24.75,33.55,2.89,16-1.29,29.93-11.27,42.65-8.5,10.85-35.47,17.23-46.75,10.46C494.31,324.92,486.62,309.77,486.82,290.29Zm61.81,11.16c-1-14.65-1.48-29.14-10.1-41.73-3.91-5.71-9.21-8.9-16.07-8.45-6.48.42-10.24,4.51-11.75,10.74-5.31,21.88-3.44,42.95,7.91,62.61a15.37,15.37,0,0,0,15.25,7.6c6.1-.61,9.41-4.4,11.4-10.37C547.54,315.05,547.82,308.14,548.63,301.45Z" transform="translate(-41.91 -103.49)"/><path class="cls-1" d="M430.59,190.61c4.81-5.8,11.26-7.39,16.84-10.45,3.06-1.67,6.76-2.11,9.17-5.19a4.46,4.46,0,0,1,5.09-1.64c2.59,1,2.39,3.25,2.39,5.33,0,14.06,0,28.11,0,42.17,0,31.74,0,63.48,0,95.22,0,6.92-1.13,14.81,9.44,15.52,1.31.09,1.44,1.36,1.36,2.46s-1.05,1.21-1.87,1.21q-18.24,0-36.49,0c-1.2,0-2.05-.33-2-1.75,0-1.17.34-2,1.73-2.1,7.92-.46,8.77-5.95,8.77-12.16,0-39.62.23-79.24,0-118.85-.06-11.2-1-11.47-11.91-9.19C432.65,191.33,432,191,430.59,190.61Z" transform="translate(-41.91 -103.49)"/><path class="cls-1" d="M396.13,323.33c-8.83,4.78-15,13.73-26.33,13.29-7.14-.27-14.41-5.1-15.85-10.95-2.2-8.94,1.1-16.53,8.47-20.72,8.26-4.7,17.1-7.88,26-10.92,4.8-1.63,7.52-4.35,7.09-10-.62-8.25.07-16.58-1.65-24.78-.87-4.1-2.54-7.55-7.13-7.67s-8.34,2.19-9.67,6.82a102.69,102.69,0,0,0-2.66,13c-.85,5.63-3.84,8.74-9.58,9.24-3.84.34-7.59.15-9.71-3.55-2.7-4.74-1-9.07,2.25-12.84,9.75-11.14,22.45-16.62,36.88-17.93,10.52-.95,19.58,8.58,19.76,23.07.17,13.84.08,27.68.09,41.53,0,2.78-.21,5.76,1.47,8,2.23,3,4.34,7.14,9.45,4,.93-.57,2.56-1.29,3.29.33.56,1.24,0,2.35-1.41,3.06-6,2.92-12.14,5.54-17.69,9.45-2.9,2-6.13,1.31-8.41-2.56C398.88,329.92,396.88,326.76,396.13,323.33Zm-.7-28.21c-4.74,2-9,3.41-12.75,5.57a14,14,0,0,0-7.09,15.5c1.14,5.15,5.22,7.66,9.65,8.55,3.89.78,10.19-6.37,10.19-10.41Z" transform="translate(-41.91 -103.49)"/><path class="cls-1" d="M477.44,568.92c-7.43,3.45-13.44,8.62-20.58,11.73-3.22,1.4-6.34-.15-8.06-3.35-1.57-2.94-2.83-6.06-4.35-9.36-4.26,3.46-8.66,6.24-12.82,9.43-6.29,4.82-14.14,5.07-21.27,2-5.54-2.38-8.07-7.6-8.11-13.86,0-7.66,2.61-13.38,10-16.74,8.76-4,17.38-8.33,26.61-11.1,3.86-1.15,5.55-2.89,5.32-7.07-.49-9.1.29-18.26-1.75-27.3-.89-3.9-2.36-7.11-6.61-7.37-4.6-.28-8.46,1.7-9.83,6.41A120.64,120.64,0,0,0,423.16,516a12,12,0,0,1-8.27,9.91c-4.25,1.48-8.22.29-10.78-3.88s-1.86-8.33.9-11.88a47.44,47.44,0,0,1,8.82-8.86c6.79-5.07,15-7.55,22.94-9.74,15.6-4.29,25.77,7.32,26,22.32.17,13.83.07,27.67.1,41.51a22.64,22.64,0,0,0,1.15,7.48C466.28,569.45,471.25,569.76,477.44,568.92Zm-33.31-15.8c0-4,0-7.38,0-10.77,0-1.93-.71-2.79-2.7-2-5.59,2.34-11,5-15.07,9.66s-3.28,12.48,1.89,17c4.36,3.84,8.06,1.83,12.59-1.38C446.46,561.72,442.9,556.81,444.13,553.12Z" transform="translate(-41.91 -103.49)"/><path class="cls-1" d="M984.47,539.05c-1-16.91,10.54-39.93,30.81-45.52,9.81-2.7,18.4-3.73,27.54,1.16,8.09,4.34,13.79,17.46,11,26.17-.94,3-3.08,2.43-5.12,2.44-13,.05-26,.22-39,0-4.11-.08-5.9,1-5.52,5.22.84,9.27,1.64,18.31,5.71,27.15,7.36,16,30,19.68,40.58,10.39,1-.85,2.86-2.8,4.28-1,1.2,1.56-.36,3-1.66,4.23-12,11.26-25.9,16.06-41.87,10.81C996,575.13,984.3,559.76,984.47,539.05Zm34.4-19.63c16.64-.2,16.86-.59,11.81-16.33-1.53-4.77-4.64-6.8-9.44-6.81-7.2,0-11.84,4.63-14.83,14.89-2.43,8.32-2.43,8.32,6.07,8.26C1014.61,519.41,1016.74,519.42,1018.87,519.42Z" transform="translate(-41.91 -103.49)"/><path class="cls-1" d="M565.12,506.93c4.18-6.58,10.64-10.18,16.43-14.55,4.51-3.4,11.07-1.41,16.07,4.8a10.58,10.58,0,0,1-.79,13.95c-3.78,3.54-9.63,3-14.16-1.54-2.8-2.79-5.61-5.95-9.85-3.39-4.08,2.46-8.32,4.87-8.17,11,.36,15.33,0,30.68.44,46,.29,9.28,3.3,11.78,12.54,12.52.63,0,1.28,0,1.92,0,1.56,0,3.1,0,3.08,2.17,0,2.61-2.1,1.6-3.27,1.61-12,.07-23.9,0-35.86,0-1.71,0-3.42.09-5.12,0-1.15,0-2.72.49-2.79-1.55-.06-1.52.54-2.23,2.21-2.36,7.09-.57,8.29-5.63,8.31-11.36,0-15.55.13-31.11,0-46.66-.1-11-2.77-12.82-13.25-9.43-1,.32-1.88,1.13-3.59-.6,3.84-2.53,7.6-5,11.39-7.48,4.73-3,10.55-4,14.7-8.3,1.47-1.53,3.72-1.87,5.44,1.4C563,497.52,564.05,501.85,565.12,506.93Z" transform="translate(-41.91 -103.49)"/><path class="cls-1" d="M777.77,507.68q7-4.19,14-8.37c4.62-2.76,10.22-3.56,14.25-7.67,1.49-1.52,3.7-1.21,4.71,1.84.85,2.57.64,5,.58,7.51-.49,21.7-.78,43.39,0,65.1.18,5.46,2.19,9,7.95,9.6,1.3.14,2.51.1,2.57,2,.07,2.49-1.71,1.94-3.06,2q-17,0-33.9,0c-1.22,0-3.23.88-3.11-1.82.07-1.75,1.13-1.93,2.51-2.08,6.67-.72,8-5.47,8-11,.07-14.47.12-28.94,0-43.41C792.19,507.79,791.18,507,777.77,507.68Z" transform="translate(-41.91 -103.49)"/><path class="cls-1" d="M480.46,507.79c3.88-2.47,7.71-5,11.66-7.38,5.34-3.19,11.78-4.23,16.51-8.78,1.58-1.52,3.71-1.15,4.71,1.89.84,2.57.62,5,.57,7.5-.49,21.7-.79,43.4,0,65.1.18,5.48,2.22,9,8,9.57,1.32.14,2.5.15,2.54,2,0,2.51-1.76,1.91-3.09,1.91q-16.95.06-33.9,0c-1.08,0-2.72.73-3-1.22s.63-2.52,2.5-2.71c6.67-.67,7.94-5.49,8-11,.07-14.48.12-28.95.05-43.42C494.81,507.82,493.86,507,480.46,507.79Z" transform="translate(-41.91 -103.49)"/><path class="cls-1" d="M514.7,455.47q.07,12.93-11.17,13c-7.87.08-12.21-4.56-12.15-13,.06-7.6,4.93-12.65,12.14-12.59S514.66,447.49,514.7,455.47Z" transform="translate(-41.91 -103.49)"/><path class="cls-1" d="M812.07,455.51c0,8.62-3.69,12.94-11.21,13-7.87.06-12.2-4.6-12.1-13,.08-7.6,5-12.63,12.17-12.55S812.05,447.51,812.07,455.51Z" transform="translate(-41.91 -103.49)"/><path class="cls-2" d="M115.93,510.06c1.26,1.84,2.31,4,.81,5.88-1.29,1.6-3.52.92-5.43.56s-3.59-1.53-5.25-.45c.4,5.67,11.24-2.12,8.62,6.76-1,3.35-.07,7.47-2,9.76-2.61,3.11-6.74-1.44-10.57.1a7.66,7.66,0,0,0,6.63,3.56c1.81.09,4.27,1.92,3.08,2.88-4,3.2-1,6.39-.9,9.57.11,2.77-1.58,3-3.77,2.86-2.49-.19-4.77-2-7.62-.95,1.15,2.82,3.69,2,5.69,2.34,2.61.4,4.24,1.17,4,4.42s-1.5,4.69-4.82,3.83c-2-.69-4.06-2.36-6.3-.27,1.6,1.44,3.47,1.48,5.37,1.43,4.26.38,3.59,3.36,3,6-.7,3.29-3.08,2-5.08,1.56-1.85-.43-3.71-.91-5.76-.19,1.35,2.9,3.92,2,6,2.23,1.57.18,3.82.67,3.39,2.06-1.48,4.74-.41,9.63-1.34,14.31-.5,2.48-2.71,1.12-4.26,1-1.89-3.66-4.28-1.9-7.46-1.44,2.28,2.67,4.33,2.57,6.35,2.58,1.63,1,4.44.38,4.28,3.67-.18,3.45-3.45,2.45-5.4,4.05,1,2.18,5.32,2.78,3.34,6.63-2.72,5.28-7.08-.79-10.35,2.09,2.22,1.19,4.37,2.27,6.44,3.48,1.14.67,3.48.67,2.73,2.68-.67,1.8,0,5.3-3.94,4.4-2.21-.74-4.37-1.86-7.4-1.22,2,2.45,4.28,2.33,6.47,2.38,2.22,2.42,2.35,12.79.26,16.5-.47.84-2.24.55-1.79,2.15.62,2.22,1.89,5.2-.46,6.36-2.84,1.41-6.34.26-9.32-.81-6.16-2.22-10-9.42-9-15.92,7.86-48.73,15-97.55,21-146.54,1.81-14.75,5.37-29.25,6.54-44.13,1.44-18.47-2.27-36.49-4.61-54.57-4-30.55-9.32-60.92-12.59-91.58-1.19-11.18-3.92-22.18-5.77-33.29a13.72,13.72,0,0,0-9.19-11.25c-30.18-11.37-32.34-43.73-22.24-65.47a40.63,40.63,0,0,1,14.33-17.25C74.5,154.27,95.18,161,104.36,176c13.37,21.94,7.66,41.21-5.68,60.21-3.62,5.17-5.44,10.38-4.2,17.21,6.76,37.44,13,75,19.25,112.49.58,3.47,1.55,5.77,5.16,6s5-2.15,5.66-5.5c6.92-36.53,15.84-72.62,24.16-108.84,1.19-5.17,2.49-10.33,3.59-15.52.65-3,.57-5.91-2.66-7.78C125,220,125.3,184.46,137.05,167.93c5.51-7.76,11.51-14.44,21.72-15.58,3.64-.4,3.64-3.72,4.41-6.26,3.47-11.55,6.21-23.35,12.61-33.83,3.4-5.57,13.28-10.21,19.39-8.35,4.71,1.44,7.31,4.9,7.59,10,.11,2.09-.59,3.33-2.82,3.23-9.34-.43-12.78,6.55-16,13.21a88.51,88.51,0,0,0-6.6,20.61c-.73,3.44-.22,6.62,3.13,8.28,11.27,5.58,14.68,16.38,16.63,27.12,1.86,10.21,1.06,20.72-4.59,30.31a46,46,0,0,1-17.61,16.85c-4.43,2.46-5.83,5.52-6.6,9.8-7.36,40.37-14,80.89-22.5,121-3.49,16.52-3.9,32.71-3.35,49.25.8,24.07-.11,48.16.3,72.21.67,39,1,77.93,3.29,116.85.57,9.82.35,19.56-4.8,28.52-2.73,4.76-6.9,8-11.08,11.15-3.45,2.58-3-1-3.12-2.83-.8-13.17-1.51-26.35-2.27-39.53q-2.55-43.68-5.11-87.35c-.11-1.8-.21-3.45-2.42-3.87a5.85,5.85,0,0,0-5.61-.21Zm-8.58,16.34a3.59,3.59,0,0,0,4.25.06l-3.31-1.18c-.17-2.11-1.71-1.92-3.11-1.71-.43.06-1.14.76-1.09,1C104.42,526.45,105.93,526.39,107.35,526.4Zm1.28-39.66c2.5.73,4.72,2.95,7.79,1.54-1.69-2.7-4.6-1.84-6.85-2.67-7.34-3.67.25-8.5-.81-13-1.21-5.13,5.31-1.08,7.2-3.2-8.92-5.09-10-13.76-11.69-22.37a29.17,29.17,0,0,0-1.63,6.66q-4.85,34.1-9.66,68.18c-4.74,33.26-8.73,66.62-14.27,99.77-.69,4.08-1.22,8.43,1,12.63,1.8-1.28.89-5.13,4.39-4.29,1.27,3.17,3.88,2.23,6.21,1.93.28,0,.77-1.27.59-1.49-1.48-1.84-3.65-1.54-5.7-1.57-2.08-1.25-4.73-3.25-2.07-5.18,2.28-1.67,2.45-1.69,1.07-4.24-2.14-4,.55-6.54,5.22-5.76,1.66.28,3.47,1.63,5.18-.23-1.39-2.58-4-2.27-6.15-2.86-3.75-1-2.63-4-2.42-6.24.29-3.2,2.79-1.82,4.43-1.47,2,.44,4.11,2,6-.53-3.1-2.76-9.8-.42-9.11-7.12.42-4.12,3.5-2.59,5.9-2.29,1.68.73,3.34,1.88,5.18.28-.88-1.6-2.46-1.5-3.89-1.71-1.72-1-4.6.94-5.45-2a5.11,5.11,0,0,1,.93-4.85c2.17-2.33,3.7.41,5.52,1,1.66.55,3.33.67,4.25-1.39-1.25-1.91-3.22-1.93-5.06-2-3.76-.19-3.92-2.63-3.43-5.36.62-3.39,3-2.12,5-1.68s3.79,1.23,5.86,0c-2-2.75-5-1.76-7.3-2.74-2.71-1.17-2.55-3-1.76-5.22S95.7,565,97.17,566c1.89,1.27,4.24,4,5.51.83s-2.89-2.55-4.71-3.5c-.73-.38-1.69-.31-2.45-.66-3.12-1.41-1.24-3.45-.62-5.34.85-2.6,1.79-1.91,3.57-.55,2.12,1.63,4.76,2.3,7.13-.34-2.14-1.88-4.44-2.16-6.74-2.58s-4.22-1.61-3.6-4.27c.58-2.46,2.82-2.13,4.76-2s4.17,1.9,7.24-.38c-3.94-1.57-8.07-1.3-10.19-4.3-2.54-3.6,1.66-6.52,1.93-10.19.52-7.24,7.41.77,10.82-2.5-1.49-1.69-3.7-1.57-5.67-2-4.31-.95-6.18-3.52-3.48-7.25,1.47-2,.47-3.62.63-5.35,1.1-11.74,1-11.75,8.61-11a3.53,3.53,0,0,0,4,.14,3.49,3.49,0,0,0-3.06-1.29c-.25-2.14-2-1.76-3.35-1.93-2.25-.28-4.13-.71-3.59-3.77s2.56-2.69,4.71-2.1c.3,1,3.42.6,1.79,2-2.14,1.81-2.57,2.19.47,2.53,2.14.24,4.06,2.4,6.47.85-1.79-3.22-2.74-7.31-7.78-6.49-2.24-.63-4.21-1.54-4.35-4.29C105.09,487.89,106.69,487.15,108.63,486.74Zm-1.49-98.34c5.47-7.08,6.84-14.4,3.57-22.68-1.46-3.7-2-7.81-2.64-11.79C102.34,320,97.55,285.87,90.49,252.14c-1.34-6.43,0-12,4.57-16.3,6.66-6.22,10.22-13.75,12.23-22.47,4.7-20.47-3.48-38-22.37-47.09-8.68-4.17-24.21-.17-29.14,7.77-4.27,6.88-7.75,14.19-8.89,22.3C44.15,215.81,52.56,233.47,70,240.9c9.76,4.15,13.4,10.38,14.58,19.43,4,30.57,7.77,61.17,11.64,91.75,4.2,33.12,8.47,66.22,12.53,99.35.46,3.71,2,4.59,5.34,4.13,4.64-.62,9.37-.67,14-1.47,6.8-1.18,8.8,2,8.9,8.17.27,16.6.91,33.2,1.22,49.81q.77,40.89,1.29,81.78c.13,9.69,0,19.39,0,29.09,3.24-4,2.91-8.47,2.92-12.86,0-45.16-1.18-90.3-2.32-135.44-.63-25.34-.86-50.69-1.3-76,0-2.28.76-5-1.49-6.57-5-3.52-8.17-8.55-11.74-13.22-3-3.93-5.53-2.89-8.42-.19C113.88,381.74,112.06,386.23,107.14,388.4Zm31.36-2.56c4.36-23.67,8.57-46.83,12.89-70,4.7-25.23,8.52-50.62,14.09-75.69,1-4.54,2.59-8.15,7.29-10.34,7.75-3.61,14.25-8.44,17.62-17.14,6-15.52,6.48-39.75-12.37-51.86-5.09-3.26-5.73-7.63-4.42-12.71,2.13-8.24,5.85-15.81,9.71-23.4,2.88-5.65,6.85-9.25,12.66-10.59,4.67-1.08,3.2-3,1.24-5-3.52-3.67-10.79-3.14-14.13,1.52a64,64,0,0,0-7.35,12.55c-4.12,9.81-6.7,20.1-9.76,30.23-.65,2.18-.85,3.86-3.69,4.23-17.28,2.24-25.07,14.65-28.2,29.5-3.32,15.78,0,30.23,15.15,40.06,4.73,3.07,10.31,6.77,8.13,14.84-3.93,14.52-7.12,29.23-10.58,43.87-6.39,27-13.15,54-18.43,81.28C126.51,376.7,128.63,380.36,138.5,385.84Zm-1.29,213c-1.71-30.08-1.14-64.35-2.28-98.58-.43-13-.18-26-1.45-38.89-.15-1.56.68-3.48-1.44-4.45-5.06-2.32-13.27,3.13-12.92,8.68,1.21,19.3,2.57,38.6,3.74,57.91,2.2,36.28,4.29,72.58,6.51,108.87.1,1.52-.75,4,1.33,4.44,2.33.56,3.07-1.9,3.82-3.54a21.38,21.38,0,0,0,1.26-4.87C137.43,620,137.17,611.52,137.21,598.88ZM118.53,492.7c-3-2.19-5.46-3.32-8.86-2.33C111.92,493.08,114,495.38,118.53,492.7Zm-8.14-11.06c1,2.85,3.27,3,5.5,2.86.87-.07.94-1.44.45-2.11C114.77,480.24,112.71,481,110.39,481.64ZM102.47,511c4.5,1.29,7.1,2.73,11.33,1.07C110.17,510.23,107.41,509.74,102.47,511Zm9,10.92c-2.5-3.21-5.4-2.46-8.58-2.07A10.52,10.52,0,0,0,111.48,521.88ZM100.74,537.8c2.39.61,4.69,3,7.86,1.47C106.42,536.81,103.66,537.38,100.74,537.8Zm-8.46,88.37c-2.13-.46-3.79-2.17-6,.42C88.38,626.75,90.07,627.8,92.28,626.17Zm9.48-83.92a23.64,23.64,0,0,0,2.49.32c.14,0,.29-.52.44-.79a23,23,0,0,0-2.27-.49C102.29,541.28,102.09,541.76,101.76,542.25Zm-7.47,53.46c-.48.29-1.36.58-1.36.87,0,1,.95,1.13,1.68,1.07.45,0,.86-.55,1.29-.84Zm15.89-88.33a10.49,10.49,0,0,0-1.79-.5c-.36,0-.74.23-1.11.36a11.31,11.31,0,0,0,1.87.8C109.37,508.1,109.72,507.69,110.18,507.38ZM89.52,635.26c-1.08-.71-2.15-1.27-3.26,0A2.16,2.16,0,0,0,89.52,635.26Z" transform="translate(-41.91 -103.49)"/><path class="cls-2" d="M52.71,203.09c.76-10,2.17-19.58,10.57-26.92,7.19-6.29,18.58-7.25,26.3-1.56,15.83,11.68,18,41.19,2.72,55.35-11.3,10.49-31.82,4.08-37-11.82C53.69,213.3,52.41,208.33,52.71,203.09Zm3.74.43c-.49,4.63.95,9.74,2.94,14.66,3.32,8.21,15.06,15,21.5,11.94C88.62,226.48,95,221.68,96.63,212s-.22-18.53-4.39-27c-3.31-6.76-13.24-11-19.11-8.78C60.62,180.87,56.38,187.6,56.45,203.52Z" transform="translate(-41.91 -103.49)"/><path class="cls-2" d="M122.84,424.86c5.46-.11,9,3.55,8.95,9.18-.07,5.24-4.89,10.91-9.49,11.14-4.78.24-7.91-4-8-10.83C114.14,428.46,117.3,425,122.84,424.86Zm4.85,10c1-1.55.13-2.62-.19-3.81-.61-2.34-1.93-3.72-4.41-3.62-.73,0-2,.44-2.07.91-.66,2.59,1.41,3.65,3.09,4.9C125.11,434,125.91,435.06,127.69,434.85Zm-9.82.24c.21,4.1,1.4,6.46,4.78,7.16a1.34,1.34,0,0,0,1.7-1.35C124.26,437.14,121.17,436.51,117.87,435.09Z" transform="translate(-41.91 -103.49)"/><path class="cls-2" d="M187,196.79c-.05,10.63-7.68,24.12-18.52,26.76-13.12,3.2-26-7.36-27.54-18.68a56.56,56.56,0,0,1,.08-17.71c2.06-11.41,8.84-18.82,19.32-23,5.82-2.32,18.26,3.29,21.6,9.94A44.75,44.75,0,0,1,187,196.79Zm-43.4-1.2a27,27,0,0,0,5.1,16c4.94,6.4,15,10.15,20,6.91,14.05-9.09,17.85-21.58,13-36.19-4.77-14.41-19.63-18.8-29.12-9C146.74,179.37,143.11,186.76,143.59,195.59Z" transform="translate(-41.91 -103.49)"/></svg>